# This file uses centimeters as units for non-parametric coordinates.

mtllib scene00.mtl
g default
v -5.763970 10.000000 -5.000000
v 5.763970 10.000000 -5.000000
v -5.763970 10.000000 5.000000
v 5.763970 10.000000 5.000000
vt 0.000000 0.000000
vt 1.000000 0.000000
vt 1.000000 1.000000
vt 0.000000 1.000000
vn 0.000000 -1.000000 0.000000
vn 0.000000 -1.000000 0.000000
vn 0.000000 -1.000000 0.000000
vn 0.000000 -1.000000 0.000000
s off
g scene00:pPlane2
usemtl scene00:initialShadingGroup
f 1/1/1 2/2/2 4/3/3 3/4/4
g default
v 5.763970 0.000000 -5.000000
v 5.763970 10.000000 -5.000000
v -5.763970 0.000000 -5.000000
v -5.763970 10.000000 -5.000000
vt 0.000000 0.000000
vt 1.000000 0.000000
vt 1.000000 1.000000
vt 0.000000 1.000000
vn 0.000000 0.000000 1.000000
vn 0.000000 0.000000 1.000000
vn 0.000000 0.000000 1.000000
vn 0.000000 0.000000 1.000000
s off
g scene00:pPlane5
usemtl scene00:initialShadingGroup
f 5/5/5 6/6/6 8/7/7 7/8/8
g default
v -5.763970 0.000000 5.000000
v 5.763970 0.000000 5.000000
v -5.763970 0.000000 -5.000000
v 5.763970 0.000000 -5.000000
vt 0.000000 0.000000
vt 1.000000 0.000000
vt 1.000000 1.000000
vt 0.000000 1.000000
vn 0.000000 1.000000 0.000000
vn 0.000000 1.000000 0.000000
vn 0.000000 1.000000 0.000000
vn 0.000000 1.000000 0.000000
s off
g scene00:pPlane1
usemtl scene00:initialShadingGroup
f 9/9/9 10/10/10 12/11/11 11/12/12
g default
v -5.763970 0.000000 -5.000000
v -5.763970 10.000000 -4.999999
v -5.763970 0.000000 4.999999
v -5.763970 10.000000 5.000000
vt 0.000000 0.000000
vt 1.000000 0.000000
vt 1.000000 1.000000
vt 0.000000 1.000000
vn 1.000000 0.000000 0.000000
vn 1.000000 0.000000 0.000000
vn 1.000000 0.000000 0.000000
vn 1.000000 0.000000 0.000000
s off
g scene00:pPlane3
usemtl scene00:lambert2SG
f 13/13/13 14/14/14 16/15/15 15/16/16
g default
v 5.763970 0.000000 5.000000
v 5.763970 10.000000 4.999999
v 5.763970 0.000000 -4.999999
v 5.763970 10.000000 -5.000000
vt 0.000000 0.000000
vt 1.000000 0.000000
vt 1.000000 1.000000
vt 0.000000 1.000000
vn -1.000000 0.000000 0.000000
vn -1.000000 0.000000 0.000000
vn -1.000000 0.000000 0.000000
vn -1.000000 0.000000 0.000000
s off
g scene00:pPlane4
usemtl scene00:lambert3SG
f 17/17/17 18/18/18 20/19/19 19/20/20
