# This file uses centimeters as units for non-parametric coordinates.

mtllib cone.mtl
g default
v 0.353553 -0.500000 -0.353553
v 0.000000 -0.500000 -0.500000
v -0.353553 -0.500000 -0.353553
v -0.500000 -0.500000 0.000000
v -0.353553 -0.500000 0.353553
v 0.000000 -0.500000 0.500000
v 0.353553 -0.500000 0.353553
v 0.500000 -0.500000 0.000000
v 0.000000 -0.500000 0.000000
v 0.000000 0.500000 0.000000
vt 0.676777 0.073223
vt 0.500000 0.000000
vt 0.323223 0.073223
vt 0.250000 0.250000
vt 0.323223 0.426777
vt 0.500000 0.500000
vt 0.676777 0.426777
vt 0.750000 0.250000
vt 0.250000 0.500000
vt 0.312500 0.500000
vt 0.375000 0.500000
vt 0.437500 0.500000
vt 0.500000 0.500000
vt 0.562500 0.500000
vt 0.625000 0.500000
vt 0.687500 0.500000
vt 0.750000 0.500000
vt 0.500000 0.250000
vt 0.500000 1.000000
vn 0.000000 -1.000000 0.000000
vn 0.000000 -1.000000 0.000000
vn 0.000000 -1.000000 0.000000
vn 0.000000 -1.000000 0.000000
vn 0.000000 -1.000000 0.000000
vn 0.000000 -1.000000 0.000000
vn 0.000000 -1.000000 0.000000
vn 0.000000 -1.000000 0.000000
vn 0.000000 -1.000000 0.000000
vn 0.347408 0.419358 -0.838717
vn 0.347408 0.419358 -0.838717
vn 0.347408 0.419359 -0.838717
vn -0.347408 0.419358 -0.838717
vn -0.347408 0.419358 -0.838717
vn -0.347408 0.419359 -0.838717
vn -0.838717 0.419358 -0.347408
vn -0.838717 0.419358 -0.347408
vn -0.838717 0.419358 -0.347408
vn -0.838717 0.419358 0.347408
vn -0.838717 0.419358 0.347408
vn -0.838717 0.419358 0.347408
vn -0.347408 0.419358 0.838717
vn -0.347408 0.419358 0.838717
vn -0.347408 0.419359 0.838717
vn 0.347408 0.419358 0.838717
vn 0.347408 0.419358 0.838717
vn 0.347408 0.419358 0.838717
vn 0.838717 0.419359 0.347408
vn 0.838717 0.419359 0.347408
vn 0.838717 0.419359 0.347408
vn 0.838717 0.419359 -0.347408
vn 0.838717 0.419358 -0.347408
vn 0.838717 0.419358 -0.347408
s 1
g pCone1
usemtl initialShadingGroup
f 2/2/1 1/1/2 9/18/3
f 3/3/4 2/2/1 9/18/3
f 4/4/5 3/3/4 9/18/3
f 5/5/6 4/4/5 9/18/3
f 6/6/7 5/5/6 9/18/3
f 7/7/8 6/6/7 9/18/3
f 8/8/9 7/7/8 9/18/3
f 1/1/2 8/8/9 9/18/3
s off
f 1/9/10 2/10/11 10/19/12
f 2/10/13 3/11/14 10/19/15
f 3/11/16 4/12/17 10/19/18
f 4/12/19 5/13/20 10/19/21
f 5/13/22 6/14/23 10/19/24
f 6/14/25 7/15/26 10/19/27
f 7/15/28 8/16/29 10/19/30
f 8/16/31 1/17/32 10/19/33
