# This file uses centimeters as units for non-parametric coordinates.

mtllib Plane1_8.mtl
g default
v -0.500000 -0.500000 0.000000
v 0.000000 -0.500000 0.000000
v 0.500000 -0.500000 0.000000
v -0.500000 0.000000 0.000000
v 0.000000 0.000000 0.000000
v 0.500000 0.000000 0.000000
v -0.500000 0.500000 0.000000
v 0.000000 0.500000 0.000000
v 0.500000 0.500000 0.000000
vt 0.000000 0.000000
vt 0.500000 0.000000
vt 1.000000 0.000000
vt 0.000000 0.500000
vt 0.500000 0.500000
vt 1.000000 0.500000
vt 0.000000 1.000000
vt 0.500000 1.000000
vt 1.000000 1.000000
vn 0.000000 0.000000 1.000000
vn 0.000000 0.000000 1.000000
vn 0.000000 0.000000 1.000000
vn 0.000000 0.000000 1.000000
vn 0.000000 0.000000 1.000000
vn 0.000000 0.000000 1.000000
vn 0.000000 0.000000 1.000000
vn 0.000000 0.000000 1.000000
vn 0.000000 0.000000 1.000000
s 1
g pPlane1
usemtl initialShadingGroup
f 5/5/1 1/1/2 2/2/3
f 5/5/1 3/3/4 6/6/5
f 7/7/6 5/5/1 8/8/7
f 9/9/8 5/5/1 6/6/5
f 8/8/7 5/5/1 9/9/8
f 4/4/9 1/1/2 5/5/1
f 7/7/6 4/4/9 5/5/1
f 5/5/1 2/2/3 3/3/4
